<?xml version="1.0" standalone="no"?>
<!DOCTYPE svg PUBLIC "-//W3C//DTD SVG 20010904//EN"
 "http://www.w3.org/TR/2001/REC-SVG-20010904/DTD/svg10.dtd">
<svg version="1.0" xmlns="http://www.w3.org/2000/svg"
 width="720.000000pt" height="720.000000pt" viewBox="0 0 720.000000 720.000000"
 preserveAspectRatio="xMidYMid meet">

<g transform="translate(0.000000,720.000000) scale(0.100000,-0.100000)"
fill="#000000" stroke="none">
<path d="M1925 7054 c-137 -13 -238 -28 -304 -46 -203 -52 -359 -122 -502
-223 l-92 -65 74 0 c209 -1 493 -72 730 -183 l97 -45 66 40 c37 23 69 39 71
36 3 -3 -1 -31 -10 -64 -18 -71 -18 -74 -2 -74 14 0 162 60 211 86 16 8 31 13
33 10 2 -2 -16 -45 -41 -95 -45 -89 -55 -121 -37 -121 19 0 156 -137 243 -244
50 -61 94 -115 98 -119 4 -5 21 -2 38 7 17 9 73 31 124 50 51 18 117 43 147
55 l53 22 -73 -83 c-40 -46 -97 -108 -127 -139 l-54 -57 50 -73 c28 -41 68
-108 90 -149 41 -76 132 -299 132 -322 0 -7 -21 8 -47 33 -169 161 -405 288
-621 334 -245 51 -572 63 -741 26 -256 -56 -440 -140 -660 -300 -153 -111
-197 -156 -336 -340 -119 -156 -239 -360 -222 -377 3 -3 44 8 91 25 96 34 370
99 431 102 22 1 65 6 95 11 30 5 93 12 139 16 l84 7 12 40 c6 22 21 60 33 85
11 25 24 58 28 74 10 40 19 19 42 -95 l19 -94 64 -8 c189 -23 365 -51 452 -72
53 -13 117 -27 141 -30 42 -7 44 -6 82 40 67 80 208 235 211 232 1 -2 -17 -68
-42 -148 -25 -79 -45 -151 -45 -159 0 -9 17 -20 41 -28 46 -14 222 -95 256
-118 23 -14 23 -15 -42 -80 -82 -83 -155 -180 -200 -265 -33 -63 -37 -67 -102
-94 -63 -26 -111 -51 -328 -165 -170 -90 -215 -116 -247 -141 -18 -15 -65 -49
-105 -75 -85 -57 -379 -338 -497 -474 -148 -170 -345 -459 -422 -620 -25 -52
-67 -140 -94 -195 -126 -259 -260 -691 -324 -1050 -82 -455 -78 -408 -83 -902
l-5 -453 61 0 61 0 2 83 c2 45 2 109 0 142 -1 33 0 120 4 193 l6 132 143 0
c151 0 234 -11 450 -61 150 -34 396 -102 473 -131 53 -20 53 -20 48 -56 -5
-28 -26 -276 -26 -298 0 -2 41 -4 90 -4 l90 0 0 78 c0 43 6 129 14 192 8 63
17 160 21 215 12 197 79 500 175 790 24 72 52 148 63 170 11 22 30 71 43 109
13 38 55 126 93 195 37 69 71 135 75 146 17 57 268 426 390 576 177 217 461
495 656 642 120 90 128 94 148 66 35 -50 79 -93 132 -129 l57 -39 6 -68 c6
-74 35 -162 70 -215 45 -67 201 -148 351 -183 141 -33 368 -16 483 36 24 11
54 24 68 29 14 5 50 25 80 44 l54 35 31 -36 c24 -27 93 -127 147 -212 2 -3
213 41 284 59 55 15 55 13 -2 -37 -30 -27 -84 -77 -121 -113 l-68 -65 53 -105
c81 -161 203 -448 241 -568 50 -152 86 -323 101 -472 7 -70 16 -133 20 -139 9
-15 41 27 93 119 19 36 46 79 59 96 53 71 157 375 189 554 33 182 36 228 31
450 -8 340 -46 491 -193 771 -62 117 -222 344 -316 448 -43 47 -171 165 -324
298 l-49 43 55 -21 c30 -11 93 -42 140 -68 47 -27 117 -65 155 -84 39 -20 97
-54 129 -76 35 -23 64 -37 70 -32 6 4 42 32 79 61 37 29 70 50 73 47 3 -3 0
-51 -7 -107 -11 -90 -10 -103 4 -117 14 -14 21 -11 84 44 107 93 102 91 98 46
-1 -21 -6 -75 -10 -119 l-7 -82 39 -30 c21 -17 59 -46 85 -64 177 -124 507
-447 603 -591 27 -39 59 -83 71 -97 25 -28 151 -230 208 -333 21 -37 43 -66
50 -64 39 12 75 183 83 397 9 242 -32 499 -123 769 -76 225 -152 377 -283 566
-94 136 -313 360 -418 428 -103 67 -257 156 -332 193 -60 29 -63 31 -39 37 40
10 206 27 269 27 l56 0 53 110 c49 101 70 130 70 98 0 -7 17 -59 37 -115 l38
-103 36 0 c35 0 36 1 78 90 42 86 61 104 61 57 0 -12 11 -53 24 -92 l23 -70
129 -26 c225 -47 380 -87 927 -246 16 -5 15 2 -8 68 -37 106 -165 354 -230
446 -143 201 -261 327 -396 420 -66 45 -122 77 -349 200 -127 69 -440 136
-730 157 -113 8 -227 12 -255 9 -63 -7 -60 -4 90 91 66 41 126 80 133 86 12
11 20 173 15 318 -1 34 0 62 3 62 7 0 106 -86 193 -167 l66 -61 125 60 c185
89 244 113 480 195 198 68 562 163 630 163 35 0 21 10 -125 89 -156 84 -265
127 -456 180 -310 85 -515 115 -799 114 -246 0 -342 -15 -625 -97 -284 -82
-440 -152 -638 -285 -150 -101 -202 -144 -340 -278 l-97 -96 -12 34 c-33 97
-163 332 -238 430 -87 116 -244 273 -355 357 -90 67 -370 210 -505 257 -164
57 -357 87 -585 90 -104 2 -208 1 -230 -1z m505 -134 c195 -35 540 -165 667
-251 112 -76 273 -221 347 -313 162 -201 223 -304 276 -462 59 -175 80 -298
80 -467 0 -168 -33 -507 -60 -612 -36 -140 -93 -325 -100 -325 -4 0 -20 18
-36 41 -43 62 -141 146 -209 180 -50 24 -66 38 -82 72 -12 23 -59 91 -105 151
-64 82 -88 121 -97 160 -47 188 -172 496 -267 655 l-32 53 86 107 c124 151
232 295 232 309 0 7 -5 12 -11 12 -24 0 -229 -65 -356 -112 l-132 -50 -148
152 c-81 84 -149 157 -151 164 -1 6 36 78 83 161 47 82 85 153 85 157 0 13
-13 10 -116 -33 -158 -66 -194 -79 -194 -73 0 3 14 36 30 74 17 38 30 71 30
74 0 3 -62 -26 -138 -66 l-137 -72 -110 46 c-172 72 -381 138 -440 138 -16 0
-36 4 -43 8 -23 15 60 50 219 94 140 38 168 43 304 48 226 8 408 1 525 -20z
m3234 -1566 c228 -36 328 -67 521 -165 240 -122 394 -234 502 -364 70 -85 293
-417 293 -437 0 -10 -78 11 -220 57 -132 43 -287 79 -464 109 -57 10 -96 22
-107 33 -10 11 -25 63 -38 133 -46 246 -51 250 -137 100 -26 -47 -56 -95 -66
-108 l-17 -23 -15 53 c-8 29 -20 74 -27 100 -20 84 -56 173 -72 176 -9 2 -17
-7 -21 -22 -3 -14 -19 -53 -35 -88 -16 -35 -38 -92 -50 -128 -12 -36 -34 -87
-49 -115 -26 -49 -28 -50 -77 -52 -143 -7 -309 -25 -380 -42 -44 -10 -109 -22
-145 -26 -36 -3 -80 -11 -98 -17 -27 -8 -37 -7 -52 7 -18 16 -99 141 -154 238
-15 26 -31 47 -36 47 -6 0 -10 -1 -10 -2 -2 -20 -54 -298 -63 -340 l-12 -56
-162 -81 c-88 -45 -166 -81 -171 -81 -6 0 -23 16 -38 35 -27 36 -104 97 -161
127 -51 28 -172 58 -231 58 -52 0 -52 1 -41 23 20 37 98 137 195 247 197 225
511 452 726 524 82 28 337 74 473 85 156 14 333 12 439 -5z m-1640 -989 c135
-49 187 -96 254 -231 71 -141 112 -424 82 -571 -5 -26 -14 -84 -19 -128 -16
-125 -56 -249 -108 -333 -40 -64 -54 -78 -98 -98 -106 -49 -277 -65 -442 -44
-219 29 -462 143 -534 249 -52 77 -69 133 -74 245 -7 133 29 272 101 398 175
304 345 463 557 518 104 27 197 26 281 -5z m-1816 -626 c104 -215 253 -360
499 -485 l102 -52 -63 -49 c-142 -108 -347 -303 -431 -408 -26 -33 -82 -97
-124 -143 -41 -45 -79 -88 -83 -95 -5 -8 -36 19 -95 83 -96 103 -273 277 -368
360 -97 85 -371 287 -426 316 l-51 26 38 40 c22 22 81 74 133 116 265 217 460
341 701 446 l95 42 15 -56 c9 -30 35 -94 58 -141z m-1511 -1355 c138 -33 466
-158 608 -231 144 -74 267 -154 336 -220 l56 -53 -90 -182 c-90 -184 -136
-309 -197 -538 -18 -69 -35 -126 -36 -128 -1 -2 -19 8 -41 21 -63 40 -134 73
-300 143 -186 77 -357 122 -611 160 -97 14 -178 27 -180 28 -2 3 31 148 93
402 19 78 53 186 76 240 22 55 56 141 75 192 40 108 81 192 93 192 5 0 58 -12
118 -26z"/>
</g>
</svg>
