<!--?xml version="1.0" encoding="utf-8"?-->
<!-- Generator: Adobe Illustrator 19.1.1, SVG Export Plug-In . SVG Version: 6.00 Build 0)  -->
<svg version="1.1" id="_x31_0" xmlns="http://www.w3.org/2000/svg" xmlns:xlink="http://www.w3.org/1999/xlink" x="0px" y="0px" viewBox="0 0 512 512" style="width: 128px; height: 128px; opacity: 1;" xml:space="preserve">
<style type="text/css">
	.st0{fill:#374149;}
</style>
<g>
	<path class="st0" d="M323.346,331.817l-4.238-12.981l-0.05,0.047l-0.055-0.165l-36.398,33.364l-1.602,2l10.562,31.839
		l77.758,104.641c0.402,0.547,0.961,0.875,1.449,1.309c0.102,0.09,0.191,0.183,0.297,0.27c1.711,1.394,3.738,2.11,5.875,2.117
		c0.016,0,0.027,0.008,0.043,0.008h0.004c0.019,0,0.038-0.012,0.058-0.012c1.942-0.011,3.894-0.449,5.554-1.691l22.641-16.882
		c4.238-3.118,5.118-9.039,2-13.282l-73.282-98.558L323.346,331.817z" style="fill: rgb(75, 75, 75);"></path>
	<path class="st0" d="M113.245,243.359c1.918,4.242,6.078,6.801,10.481,6.801c1.519,0,3.117-0.32,4.637-1.039l63.594-28.339
		l17.621-14.294l9.199-7.351l12.469,104.222l-46.242,60l-3.277,140.481c-0.082,4,3.117,7.359,7.199,7.442L219.963,512h0.242
		c3.918,0,7.199-3.117,7.278-7.117l2.879-125.282l34.562-43.922l7.602-6.962l30.476-27.835c3.36-3.043,5.524-7.043,6.321-11.364
		c0.32-1.918,0.402-3.918,0.16-5.918l-1.039-8.883l-9.328-63.046l-6.855-47.156l36.984,31.644l25.118,52.641
		c2.242,4.641,6.882,7.359,11.762,7.359c1.839,0,3.762-0.398,5.602-1.199l17.758-8.562c6.48-3.039,9.281-10.797,6.16-17.278
		l-29.281-61.441l-78.078-66.719c-2.801-2.398-6.481-3.762-10.16-3.762c-1.36,0-2.719,0.242-4.078,0.562l-53.121,14.481
		c-4.719,1.277-8.562,4.718-10.398,9.277l-29.934,53.817l-70.95,32.106c-5.758,2.558-8.32,9.359-5.758,15.121L113.245,243.359z" style="fill: rgb(75, 75, 75);"></path>
	<path class="st0" d="M227.483,85.602c3.519,0.961,7.199,1.438,10.961,1.438c12,0,22.961-4.879,30.879-12.797
		c7.762-7.922,12.64-18.723,12.64-30.723c0-24-19.519-43.519-43.519-43.519s-43.519,19.519-43.519,43.519
		C194.925,63.762,208.764,80.801,227.483,85.602z" style="fill: rgb(75, 75, 75);"></path>
</g>
</svg>
